<svg viewBox="0 0 512 256" xmlns="http://www.w3.org/2000/svg">
  <defs></defs>
  <g data-v-70b83f88="" fill="#333" class="iconlinesvg-g iconlinesvg" transform="matrix(2.522585, 0, 0, 2.522585, 5, 117.092552)" style="">
    <g class="tp-name">
      <g transform="translate(0, 0)">
        <g>
          <g class="imagesvg">
            <g>
              <rect fill="#333" fill-opacity="0" stroke-width="2" x="0" y="0" width="37.648810487133844" height="25.099206991422562" class="image-rect"></rect>
              <svg x="0" y="0" width="37.648810487133844" height="25.099206991422562" filtersec="colorsb1702981845" class="image-svg-svg primary" style="overflow: visible;">
                <svg xmlns="http://www.w3.org/2000/svg" viewBox="-0.000003636183464550413 0 150 100">
                  <title>资源 29</title>
                  <path d="M130.74 6.24l-16.31 40.14a10 10 0 0 0 0 7.53 10 10 0 0 0 18.53 0l16.3-40.15A9.88 9.88 0 0 0 150 10a10 10 0 0 0-10-10 10 10 0 0 0-9.26 6.24z" fill="#62ba47"></path>
                  <path d="M19.26 6.24l16.31 40.14a10 10 0 0 1 0 7.53 10 10 0 0 1-18.53 0L.74 13.76A9.88 9.88 0 0 1 0 10 10 10 0 0 1 10 0a10 10 0 0 1 9.26 6.24z" fill="#009dda"></path>
                  <path d="M72.5 0a10 10 0 0 0-9.26 6.24l-32.5 80A9.88 9.88 0 0 0 30 90a10 10 0 0 0 10 10 10 10 0 0 0 9.26-6.24L72.5 36.57l23.24 57.19A10 10 0 0 0 105 100a10 10 0 0 0 10-10 9.88 9.88 0 0 0-.74-3.76l-32.5-80A10 10 0 0 0 72.5 0z" fill="#62ba47"></path>
                </svg>
              </svg>
            </g>
          </g>
        </g>
      </g>
      <g transform="translate(41, 2.0770351189512866)">
        <g data-gra="path-name" fill="#333" transform="scale(1)">
          <path d="M8.07-14.59Q11.04-14.59 12.48-13.12Q13.92-11.65 13.92-8.65L13.92-8.65L13.92-1.54Q13.92-0.76 13.46-0.31Q12.99 0.15 12.18 0.15L12.18 0.15Q11.42 0.15 10.94-0.32Q10.46-0.79 10.46-1.54L10.46-1.54L10.46-2.18Q9.96-1.05 8.90-0.41Q7.84 0.23 6.44 0.23L6.44 0.23Q5.01 0.23 3.85-0.35Q2.68-0.93 2.01-1.95Q1.34-2.97 1.34-4.22L1.34-4.22Q1.34-5.80 2.14-6.70Q2.94-7.60 4.75-8.01Q6.55-8.42 9.73-8.42L9.73-8.42L10.46-8.42L10.46-9.09Q10.46-10.52 9.85-11.17Q9.23-11.83 7.87-11.83L7.87-11.83Q7.02-11.83 6.15-11.58Q5.27-11.33 4.08-10.87L4.08-10.87Q3.32-10.49 2.97-10.49L2.97-10.49Q2.45-10.49 2.11-10.87Q1.78-11.24 1.78-11.86L1.78-11.86Q1.78-12.35 2.02-12.72Q2.27-13.08 2.85-13.40L2.85-13.40Q3.87-13.95 5.29-14.27Q6.70-14.59 8.07-14.59L8.07-14.59ZM7.17-2.39Q8.62-2.39 9.54-3.36Q10.46-4.34 10.46-5.88L10.46-5.88L10.46-6.50L9.93-6.50Q7.98-6.50 6.90-6.32Q5.83-6.15 5.36-5.71Q4.89-5.27 4.89-4.52L4.89-4.52Q4.89-3.58 5.55-2.99Q6.20-2.39 7.17-2.39L7.17-2.39Z" transform="translate(-1.3400226573879268, 20.712089334843828)"></path>
        </g>
      </g>
      <g transform="translate(57, 2.0770351189512866)">
        <g data-gra="path-name" fill="#333" transform="scale(1)">
          <path d="M9.29-2.53Q10.75-2.45 10.75-1.22L10.75-1.22Q10.75-0.52 10.18-0.16Q9.61 0.20 8.56 0.15L8.56 0.15L7.78 0.09Q2.88-0.26 2.88-5.16L2.88-5.16L2.88-11.51L1.43-11.51Q0.64-11.51 0.22-11.86Q-0.20-12.21-0.20-12.88L-0.20-12.88Q-0.20-13.55 0.22-13.90Q0.64-14.25 1.43-14.25L1.43-14.25L2.88-14.25L2.88-16.93Q2.88-17.71 3.38-18.18Q3.87-18.64 4.72-18.64L4.72-18.64Q5.53-18.64 6.03-18.18Q6.53-17.71 6.53-16.93L6.53-16.93L6.53-14.25L9.00-14.25Q9.79-14.25 10.21-13.90Q10.63-13.55 10.63-12.88L10.63-12.88Q10.63-12.21 10.21-11.86Q9.79-11.51 9.00-11.51L9.00-11.51L6.53-11.51L6.53-4.89Q6.53-2.74 8.51-2.59L8.51-2.59L9.29-2.53Z" transform="translate(0.20391649134164108, 20.712089334843828)"></path>
        </g>
      </g>
      <g transform="translate(71, 2.0770351189512866)">
        <g data-gra="path-name" fill="#333" transform="scale(1)">
          <path d="M13.17-3.90Q13.66-3.90 13.97-3.52Q14.27-3.15 14.27-2.51L14.27-2.51Q14.27-1.60 13.20-0.99L13.20-0.99Q12.21-0.44 10.95-0.10Q9.70 0.23 8.56 0.23L8.56 0.23Q5.13 0.23 3.12-1.75Q1.11-3.73 1.11-7.17L1.11-7.17Q1.11-9.35 1.98-11.04Q2.85-12.73 4.44-13.66Q6.03-14.59 8.04-14.59L8.04-14.59Q9.96-14.59 11.39-13.75Q12.82-12.91 13.60-11.36Q14.39-9.82 14.39-7.72L14.39-7.72Q14.39-6.47 13.28-6.47L13.28-6.47L4.69-6.47Q4.86-4.46 5.83-3.51Q6.79-2.56 8.62-2.56L8.62-2.56Q9.55-2.56 10.27-2.80Q10.98-3.03 11.89-3.44L11.89-3.44Q12.76-3.90 13.17-3.90L13.17-3.90ZM8.13-12.03Q6.64-12.03 5.75-11.10Q4.86-10.17 4.69-8.42L4.69-8.42L11.27-8.42Q11.22-10.20 10.40-11.11Q9.58-12.03 8.13-12.03L8.13-12.03Z" transform="translate(-1.1069752387117657, 20.712089334843828)"></path>
        </g>
      </g>
      <g transform="translate(88, 2.0770351189512866)">
        <g data-gra="path-name" fill="#333" transform="scale(1)">
          <path d="M9.85-14.54Q10.60-14.59 11.04-14.22Q11.48-13.84 11.48-13.08L11.48-13.08Q11.48-12.29 11.10-11.91Q10.72-11.54 9.73-11.42L9.73-11.42L8.86-11.33Q7.14-11.16 6.34-10.17Q5.53-9.18 5.53-7.69L5.53-7.69L5.53-1.57Q5.53-0.73 5.01-0.28Q4.49 0.17 3.70 0.17L3.70 0.17Q2.91 0.17 2.40-0.28Q1.89-0.73 1.89-1.57L1.89-1.57L1.89-12.85Q1.89-13.66 2.40-14.10Q2.91-14.54 3.67-14.54L3.67-14.54Q4.43-14.54 4.89-14.11Q5.36-13.69 5.36-12.91L5.36-12.91L5.36-11.74Q5.91-13.02 7.01-13.72Q8.10-14.42 9.44-14.51L9.44-14.51L9.85-14.54Z" transform="translate(-1.89351027674381, 20.712089334843828)"></path>
        </g>
      </g>
      <g transform="translate(101, 2.0770351189512866)">
        <g data-gra="path-name" fill="#333" transform="scale(1)">
          <path d="M18.82-14.59Q21.15-14.59 22.39-13.21Q23.63-11.83 23.63-8.74L23.63-8.74L23.63-1.57Q23.63-0.73 23.12-0.28Q22.61 0.17 21.79 0.17L21.79 0.17Q21.00 0.17 20.49-0.28Q19.98-0.73 19.98-1.57L19.98-1.57L19.98-8.74Q19.98-10.34 19.42-11.03Q18.85-11.71 17.68-11.71L17.68-11.71Q16.26-11.71 15.41-10.73Q14.57-9.76 14.57-8.07L14.57-8.07L14.57-1.57Q14.57-0.73 14.06-0.28Q13.55 0.17 12.76 0.17L12.76 0.17Q11.97 0.17 11.45-0.28Q10.92-0.73 10.92-1.57L10.92-1.57L10.92-8.74Q10.92-10.34 10.36-11.03Q9.79-11.71 8.62-11.71L8.62-11.71Q7.20-11.71 6.37-10.73Q5.53-9.76 5.53-8.07L5.53-8.07L5.53-1.57Q5.53-0.73 5.01-0.28Q4.49 0.17 3.70 0.17L3.70 0.17Q2.91 0.17 2.40-0.28Q1.89-0.73 1.89-1.57L1.89-1.57L1.89-12.85Q1.89-13.66 2.42-14.10Q2.94-14.54 3.73-14.54L3.73-14.54Q4.49-14.54 4.97-14.11Q5.45-13.69 5.45-12.91L5.45-12.91L5.45-12.21Q6.12-13.37 7.24-13.98Q8.36-14.59 9.82-14.59L9.82-14.59Q13.02-14.59 14.10-11.91L14.10-11.91Q14.74-13.14 15.99-13.87Q17.25-14.59 18.82-14.59L18.82-14.59Z" transform="translate(-1.8935102767438101, 20.712089334843828)"></path>
        </g>
      </g>
      <g transform="translate(126, 2.0770351189512866)">
        <g data-gra="path-name" fill="#333" transform="scale(1)">
          <path d="M8.07-14.59Q11.04-14.59 12.48-13.12Q13.92-11.65 13.92-8.65L13.92-8.65L13.92-1.54Q13.92-0.76 13.46-0.31Q12.99 0.15 12.18 0.15L12.18 0.15Q11.42 0.15 10.94-0.32Q10.46-0.79 10.46-1.54L10.46-1.54L10.46-2.18Q9.96-1.05 8.90-0.41Q7.84 0.23 6.44 0.23L6.44 0.23Q5.01 0.23 3.85-0.35Q2.68-0.93 2.01-1.95Q1.34-2.97 1.34-4.22L1.34-4.22Q1.34-5.80 2.14-6.70Q2.94-7.60 4.75-8.01Q6.55-8.42 9.73-8.42L9.73-8.42L10.46-8.42L10.46-9.09Q10.46-10.52 9.85-11.17Q9.23-11.83 7.87-11.83L7.87-11.83Q7.02-11.83 6.15-11.58Q5.27-11.33 4.08-10.87L4.08-10.87Q3.32-10.49 2.97-10.49L2.97-10.49Q2.45-10.49 2.11-10.87Q1.78-11.24 1.78-11.86L1.78-11.86Q1.78-12.35 2.02-12.72Q2.27-13.08 2.85-13.40L2.85-13.40Q3.87-13.95 5.29-14.27Q6.70-14.59 8.07-14.59L8.07-14.59ZM7.17-2.39Q8.62-2.39 9.54-3.36Q10.46-4.34 10.46-5.88L10.46-5.88L10.46-6.50L9.93-6.50Q7.98-6.50 6.90-6.32Q5.83-6.15 5.36-5.71Q4.89-5.27 4.89-4.52L4.89-4.52Q4.89-3.58 5.55-2.99Q6.20-2.39 7.17-2.39L7.17-2.39Z" transform="translate(-1.3400226573879268, 20.712089334843828)"></path>
        </g>
      </g>
      <g transform="translate(142, 2.0770351189512866)">
        <g data-gra="path-name" fill="#333" transform="scale(1)">
          <path d="M9.85-14.54Q10.60-14.59 11.04-14.22Q11.48-13.84 11.48-13.08L11.48-13.08Q11.48-12.29 11.10-11.91Q10.72-11.54 9.73-11.42L9.73-11.42L8.86-11.33Q7.14-11.16 6.34-10.17Q5.53-9.18 5.53-7.69L5.53-7.69L5.53-1.57Q5.53-0.73 5.01-0.28Q4.49 0.17 3.70 0.17L3.70 0.17Q2.91 0.17 2.40-0.28Q1.89-0.73 1.89-1.57L1.89-1.57L1.89-12.85Q1.89-13.66 2.40-14.10Q2.91-14.54 3.67-14.54L3.67-14.54Q4.43-14.54 4.89-14.11Q5.36-13.69 5.36-12.91L5.36-12.91L5.36-11.74Q5.91-13.02 7.01-13.72Q8.10-14.42 9.44-14.51L9.44-14.51L9.85-14.54Z" transform="translate(-1.89351027674381, 20.712089334843828)"></path>
        </g>
      </g>
      <g transform="translate(155, 2.0770351189512866)">
        <g data-gra="path-name" fill="#333" transform="scale(1)">
          <path d="M14.57-2.83Q15.15-2.27 15.15-1.57L15.15-1.57Q15.15-0.90 14.67-0.38Q14.19 0.15 13.55 0.15L13.55 0.15Q12.91 0.15 12.35-0.38L12.35-0.38L5.53-6.55L5.53-1.57Q5.53-0.73 5.01-0.29Q4.49 0.15 3.70 0.15L3.70 0.15Q2.91 0.15 2.40-0.29Q1.89-0.73 1.89-1.57L1.89-1.57L1.89-18.96Q1.89-19.81 2.40-20.25Q2.91-20.68 3.70-20.68L3.70-20.68Q4.49-20.68 5.01-20.25Q5.53-19.81 5.53-18.96L5.53-18.96L5.53-8.01L11.77-13.98Q12.29-14.51 12.96-14.51L12.96-14.51Q13.63-14.51 14.13-14.01Q14.62-13.52 14.62-12.85L14.62-12.85Q14.62-12.18 14.07-11.62L14.07-11.62L9.50-7.37L14.57-2.83Z" transform="translate(-1.89351027674381, 20.712089334843828)"></path>
        </g>
      </g>
      <g transform="translate(172, 2.0770351189512866)">
        <g data-gra="path-name" fill="#333" transform="scale(1)">
          <path d="M13.17-3.90Q13.66-3.90 13.97-3.52Q14.27-3.15 14.27-2.51L14.27-2.51Q14.27-1.60 13.20-0.99L13.20-0.99Q12.21-0.44 10.95-0.10Q9.70 0.23 8.56 0.23L8.56 0.23Q5.13 0.23 3.12-1.75Q1.11-3.73 1.11-7.17L1.11-7.17Q1.11-9.35 1.98-11.04Q2.85-12.73 4.44-13.66Q6.03-14.59 8.04-14.59L8.04-14.59Q9.96-14.59 11.39-13.75Q12.82-12.91 13.60-11.36Q14.39-9.82 14.39-7.72L14.39-7.72Q14.39-6.47 13.28-6.47L13.28-6.47L4.69-6.47Q4.86-4.46 5.83-3.51Q6.79-2.56 8.62-2.56L8.62-2.56Q9.55-2.56 10.27-2.80Q10.98-3.03 11.89-3.44L11.89-3.44Q12.76-3.90 13.17-3.90L13.17-3.90ZM8.13-12.03Q6.64-12.03 5.75-11.10Q4.86-10.17 4.69-8.42L4.69-8.42L11.27-8.42Q11.22-10.20 10.40-11.11Q9.58-12.03 8.13-12.03L8.13-12.03Z" transform="translate(-1.1069752387117657, 20.712089334843828)"></path>
        </g>
      </g>
      <g transform="translate(189, 2.0770351189512866)">
        <g data-gra="path-name" fill="#333" transform="scale(1)">
          <path d="M9.85-14.54Q10.60-14.59 11.04-14.22Q11.48-13.84 11.48-13.08L11.48-13.08Q11.48-12.29 11.10-11.91Q10.72-11.54 9.73-11.42L9.73-11.42L8.86-11.33Q7.14-11.16 6.34-10.17Q5.53-9.18 5.53-7.69L5.53-7.69L5.53-1.57Q5.53-0.73 5.01-0.28Q4.49 0.17 3.70 0.17L3.70 0.17Q2.91 0.17 2.40-0.28Q1.89-0.73 1.89-1.57L1.89-1.57L1.89-12.85Q1.89-13.66 2.40-14.10Q2.91-14.54 3.67-14.54L3.67-14.54Q4.43-14.54 4.89-14.11Q5.36-13.69 5.36-12.91L5.36-12.91L5.36-11.74Q5.91-13.02 7.01-13.72Q8.10-14.42 9.44-14.51L9.44-14.51L9.85-14.54Z" transform="translate(-1.89351027674381, 20.712089334843828)"></path>
        </g>
      </g>
    </g>
  </g>
</svg>